<?xml version="1.0"?>
<svg version="1.1" xmlns="http://www.w3.org/2000/svg" width="100" height="200" style=""><path class="path" fill="#444444" stroke="#444444" stroke-width="0.1" d="M23.932,97.2l-2.38,0.56l0,16.1c0,3.36-1.96,5.46-5.32,5.46c-0.7,0-1.792-0.14-1.792-0.14l0.252-2.1l1.4,0c1.82,0,2.52-0.98,2.52-2.66l0-16.66l-2.38-0.56l0-1.54l7.7-0.14l0,1.68z M33.4128,104.06l6.44,0l0,2.24l-6.44,0l0,6.58l2.8,0.56l0,1.68l-8.12,0l0-1.68l2.38-0.56l0-15.12l-2.38-0.56l0-1.54l5.32-0.14l8.54,0l0,4.62l-1.82,0l-0.7-2.38l-6.02,0l0,6.3z M48.3536,112.88l0-15.12l-2.38-0.56l0-1.54l5.32-0.14l2.94,0c4.2,0,6.44,2.24,6.44,5.74c0,4.34-2.8,6.58-7.56,6.58l-1.82,0l0,5.04l2.38,0.56l0,1.68l-7.7,0l0-1.68z M51.2936,105.6l1.82,0c3.08,0,4.62-1.4,4.62-3.92c0-2.24-1.26-3.92-3.64-3.92l-2.8,0l0,7.84z M75.3344,112.88l0.56-3.22l1.96,0l0,5.46l-13.58,0l0-1.68l2.38-0.56l0-15.12l-2.38-0.56l0-1.54l7.7-0.14l0,1.68l-2.38,0.56l0,15.12l5.74,0z"/><path fill="#" d=""/></svg>
